# xmcd
#
# Track frame offsets:
#       182
#       15125
#       29397
#       43265
#       54677
#       69242
#       78967
#       90505
#       105370
#       121070
#       135745
#       154405
#
# Disc length: 2187 seconds
#
# Revision: 4
# Processed by: cddbd v1.5.2PL0 Copyright (c) Steve Scherf et al.
# Submitted via: FreeDbEdit v0.1
# Normalized: r1:TDELIM( - ),TSWAP
#
DISCID=8b08890c
DTITLE=Various Artist - A Country Christmas [CD1]
DYEAR=1900
DGENRE=
TTITLE0=Eddy Raven - White Christmas
TTITLE1=Lacy J. Dalton - Silver Bells
TTITLE2=Glen Campbell - The Christmas Song
TTITLE3=Wild Rose - Jingle-Bell Rock
TTITLE4=Sawyer Brown - Blue Christmas
TTITLE5=Eddie Rabbitt - Rockin' Around the Christmas Tree
TTITLE6=Merle Haggard - Winter Wonderland
TTITLE7=Pirates Of The Mississippi - Dancing Snowman
TTITLE8=Suzy Bogguss - The First Noel
TTITLE9=Gatlin Brothers - Do You Hear What I Hear
TTITLE10=Tanya Tucker - What Child Is This
TTITLE11=Cristy Lane - O Holy Night
EXTD=
EXTT0=
EXTT1=
EXTT2=
EXTT3=
EXTT4=
EXTT5=
EXTT6=
EXTT7=
EXTT8=
EXTT9=
EXTT10=
EXTT11=
PLAYORDER=
